solid cube_D.stl
  facet normal 1.000000 0.000000 0.000000
    outer loop
      vertex 0.000000 0.000000 0.000000
      vertex 0.000000 200.000000 0.000000
      vertex 0.000000 200.000000 200.000000
    endloop
  endfacet
  facet normal 0.000000 0.000000 1.000000
    outer loop
      vertex 0.000000 0.000000 0.000000
      vertex 600.000000 0.000000 0.000000
      vertex 600.000000 200.000000 0.000000
    endloop
  endfacet
  facet normal 0.000000 1.000000 0.000000
    outer loop
      vertex 0.000000 0.000000 0.000000
      vertex 0.000000 0.000000 200.000000
      vertex 600.000000 0.000000 200.000000
    endloop
  endfacet
  facet normal -1.000000 0.000000 0.000000
    outer loop
      vertex 600.000000 0.000000 0.000000
      vertex 600.000000 0.000000 200.000000
      vertex 600.000000 200.000000 200.000000
    endloop
  endfacet
  facet normal 0.000000 -1.000000 0.000000
    outer loop
      vertex 0.000000 200.000000 0.000000
      vertex 600.000000 200.000000 0.000000
      vertex 600.000000 200.000000 200.000000
    endloop
  endfacet
  facet normal 0.000000 0.000000 -1.000000
    outer loop
      vertex 0.000000 0.000000 200.000000
      vertex 0.000000 200.000000 200.000000
      vertex 600.000000 200.000000 200.000000
    endloop
  endfacet
endsolid cube_D.stl
